<svg width="80" height="80" viewBox="0 0 80 80" fill="none" xmlns="http://www.w3.org/2000/svg">
<path d="M0 50C19.9277 50 20.0116 26.3763 1.62934 25.0574C1.05441 25.0625 0.509366 25.0424 0 25C0.558321 25 1.10144 25.0195 1.62934 25.0574C10.0842 24.9823 25.0037 19.4756 28 0C28 17.9989 51.6641 18.4864 52.946 1.46254C52.943 0.948619 52.9617 0.459471 53 0C53 0.501085 52.9817 0.988599 52.946 1.46254C52.9948 9.89666 58.8865 25 80 25C61 25 61 50 80 50C66 50 53 61 53 80C53 59 28 59 28 80C28 61 15 50 0 50Z" fill="#2D4F46"/>
</svg>
