<svg width="76" height="67" viewBox="0 0 76 67" fill="none" xmlns="http://www.w3.org/2000/svg">
<path fill-rule="evenodd" clip-rule="evenodd" d="M29.1232 55.6238V1.13853C29.1232 0.555043 29.5962 0.0820312 30.1797 0.0820312H40.2919C46.1268 0.0820312 50.8569 4.81215 50.8569 10.647V19.1896C50.8569 25.0245 46.1268 29.7546 40.2919 29.7546H39.8844C38.7225 29.7436 37.9848 29.6829 36.579 29.2867V55.3068C36.579 57.1823 38.0994 58.7027 39.9749 58.7027C41.8504 58.7027 43.3708 57.1823 43.3708 55.3068V37.6029C43.3708 37.0194 43.8438 36.5464 44.4273 36.5464H49.8004C50.3839 36.5464 50.8569 37.0194 50.8569 37.6029V65.1323C50.8569 65.7158 50.3839 66.1888 49.8004 66.1888H39.6882C33.8533 66.1888 29.1232 61.4587 29.1232 55.6238ZM26.4065 37.6029V65.1323C26.4065 65.7158 25.9334 66.1888 25.35 66.1888H19.9769C19.3934 66.1888 18.9204 65.7158 18.9204 65.1323V47.4284C18.9204 45.5529 17.4 44.0325 15.5245 44.0325C13.649 44.0325 12.1286 45.5529 12.1286 47.4284V58.7329C12.1286 62.8507 8.79049 66.1888 4.67272 66.1888H1.98619C1.4027 66.1888 0.929688 65.7158 0.929688 65.1323V59.7592C0.929688 59.1758 1.4027 58.7027 1.98619 58.7027H2.55972C3.7267 58.7027 4.67272 57.7567 4.67272 56.5897V47.1114C4.67272 41.2765 9.40283 36.5464 15.2377 36.5464H25.35C25.9334 36.5464 26.4065 37.0194 26.4065 37.6029ZM53.5736 65.1323V37.6029C53.5736 37.0194 54.0466 36.5464 54.6301 36.5464H65.8592C71.0773 36.5464 75.3074 40.7765 75.3074 45.9945C75.2308 48.5811 74.9551 49.4937 73.6773 51.3374C74.8348 53.475 75.1947 54.515 75.3074 56.7407C75.3074 61.9587 71.0773 66.1888 65.8592 66.1888H54.6301C54.0466 66.1888 53.5736 65.7158 53.5736 65.1323ZM11.16 29.7546H5.64742C5.1108 29.7546 4.67578 29.3196 4.67578 28.783V1.05367C4.67578 0.51705 5.1108 0.0820312 5.64742 0.0820312H25.4525C25.9893 0.0820312 26.4244 0.517352 26.4241 1.05417L26.41 28.7835C26.4097 29.3199 25.9748 29.7546 25.4384 29.7546H19.8951C19.3585 29.7546 18.9234 29.3196 18.9234 28.783V10.964C18.9234 9.08849 17.4031 7.56809 15.5276 7.56809C13.6521 7.56809 12.1317 9.08849 12.1317 10.964V28.783C12.1317 29.3196 11.6966 29.7546 11.16 29.7546ZM53.5781 9.79844V20.0382C53.5781 25.4044 57.9283 29.7546 63.2945 29.7546H65.5955C70.9617 29.7546 75.3119 25.4044 75.3119 20.0382V9.79843C75.3119 4.43221 70.9617 0.0820312 65.5954 0.0820312H63.2945C57.9283 0.0820312 53.5781 4.43222 53.5781 9.79844ZM36.5781 18.871V10.9623C36.5781 9.08681 38.0985 7.56641 39.974 7.56641C41.8495 7.56641 43.3699 9.0868 43.3699 10.9623V18.871C43.3699 20.7465 41.8495 22.2669 39.974 22.2669C38.0985 22.2669 36.5781 20.7465 36.5781 18.871ZM61.0312 10.9623V18.871C61.0312 20.7465 62.5516 22.2669 64.4271 22.2669C66.3027 22.2669 67.823 20.7465 67.823 18.871V10.9623C67.823 9.0868 66.3027 7.56641 64.4271 7.56641C62.5516 7.56641 61.0312 9.08681 61.0312 10.9623ZM65.8542 44.0312H61.0547V47.9554H65.8542C66.9378 47.9554 67.8163 47.0769 67.8163 45.9933C67.8163 44.9097 66.9378 44.0312 65.8542 44.0312ZM61.0547 54.7539H65.8391C66.9311 54.7539 67.8163 55.6391 67.8163 56.7311C67.8163 57.823 66.9311 58.7082 65.8391 58.7082H61.0547V54.7539Z" fill="white"/>
</svg>
