<svg width="43" height="37" viewBox="0 0 43 37" fill="none" xmlns="http://www.w3.org/2000/svg">
<path fill-rule="evenodd" clip-rule="evenodd" d="M16.5364 31.0868V0.591324C16.5364 0.264745 16.7973 0 17.1192 0H22.6969C25.9153 0 28.5243 2.64745 28.5243 5.91324V10.6945C28.5243 13.9603 25.9153 16.6078 22.6969 16.6078H22.4721C21.8312 16.6016 21.4243 16.5676 20.6489 16.3459V30.9094C20.6489 31.9591 21.4875 32.81 22.522 32.81C23.5565 32.81 24.3951 31.9591 24.3951 30.9094V21.0005C24.3951 20.6739 24.656 20.4091 24.9779 20.4091H27.9416C28.2634 20.4091 28.5243 20.6739 28.5243 21.0005V36.4087C28.5243 36.7353 28.2634 37 27.9416 37H22.3639C19.1455 37 16.5364 34.3526 16.5364 31.0868ZM14.0525 21.0005V36.4087C14.0525 36.7353 13.7915 37 13.4697 37H10.506C10.1842 37 9.9233 36.7353 9.9233 36.4087V26.4998C9.9233 25.4501 9.08468 24.5991 8.05019 24.5991C7.0157 24.5991 6.17708 25.4501 6.17708 26.4998V32.8269C6.17708 35.1317 4.33585 37 2.06458 37H0.582744C0.260903 37 0 36.7353 0 36.4087V33.4014C0 33.0748 0.260903 32.81 0.582744 32.81H0.89909C1.54277 32.81 2.06458 32.2806 2.06458 31.6274V26.3224C2.06458 23.0566 4.67361 20.4091 7.89202 20.4091H13.4697C13.7915 20.4091 14.0525 20.6739 14.0525 21.0005ZM31.0083 36.4087V21.0005C31.0083 20.6739 31.2692 20.4091 31.591 20.4091H37.7847C40.6629 20.4091 42.9961 22.7767 42.9961 25.6973C42.9539 27.145 42.8018 27.6557 42.0971 28.6877C42.7355 29.8841 42.934 30.4662 42.9961 31.7119C42.9961 34.6324 40.6629 37 37.7847 37H31.591C31.2692 37 31.0083 36.7353 31.0083 36.4087ZM5.63118 16.6078H2.60633C2.30598 16.6078 2.0625 16.3643 2.0625 16.0639V0.543828C2.0625 0.24348 2.30598 0 2.60633 0H13.5146C13.8151 0 14.0586 0.243645 14.0584 0.544099L14.0506 16.0642C14.0505 16.3644 13.8071 16.6078 13.5068 16.6078H10.465C10.1647 16.6078 9.92122 16.3643 9.92122 16.0639V6.06306C9.92122 5.02857 9.0826 4.18995 8.04811 4.18995C7.01362 4.18995 6.17501 5.02857 6.17501 6.06306V16.0639C6.17501 16.3643 5.93153 16.6078 5.63118 16.6078ZM31.0156 5.43828V11.1695C31.0156 14.173 33.4504 16.6078 36.4539 16.6078H37.5652C40.5687 16.6078 43.0035 14.173 43.0035 11.1695V5.43828C43.0035 2.4348 40.5687 0 37.5652 0H36.4539C33.4504 0 31.0156 2.4348 31.0156 5.43828ZM20.6562 10.5462V6.06451C20.6562 5.03002 21.4949 4.19141 22.5294 4.19141C23.5638 4.19141 24.4025 5.03002 24.4025 6.06451V10.5462C24.4025 11.5806 23.5638 12.4193 22.5294 12.4193C21.4949 12.4193 20.6562 11.5806 20.6562 10.5462ZM35.1172 6.06451V10.5462C35.1172 11.5806 35.9558 12.4193 36.9903 12.4193C38.0248 12.4193 38.8634 11.5806 38.8634 10.5462V6.06451C38.8634 5.03002 38.0248 4.19141 36.9903 4.19141C35.9558 4.19141 35.1172 5.03002 35.1172 6.06451ZM37.7642 24.5977H35.1328V26.794H37.7642C38.3707 26.794 38.8624 26.3023 38.8624 25.6958C38.8624 25.0893 38.3707 24.5977 37.7642 24.5977ZM35.1328 30.5977H37.7558C38.3669 30.5977 38.8624 31.0931 38.8624 31.7043C38.8624 32.3154 38.3669 32.8109 37.7558 32.8109H35.1328V30.5977Z" fill="#2D4F46"/>
</svg>
