<svg width="80" height="80" viewBox="0 0 80 80" fill="none" xmlns="http://www.w3.org/2000/svg">
<path d="M0 50C20.0023 50 20.0119 28.1033 1.42223 27.04C0.923199 27.051 0.447814 27.0373 0 27C0.485579 27 0.959663 27.0136 1.42223 27.04C9.8382 26.8543 24.9791 19.6357 28 0C28 17.1676 52.0592 17.4937 52.9733 0.978379C52.9653 0.636877 52.9742 0.310178 53 0C53 0.332442 52.991 0.658568 52.9733 0.978379C53.17 9.44477 63.6591 27 80 27C63 27 63 50 80 50C66 50 52 61 52 80C52 60 29 60 29 80C29 61 15 50 0 50Z" fill="#A6BDB1"/>
</svg>
